<?xml version="1.0" standalone="no"?>
<!DOCTYPE svg PUBLIC "-//W3C//DTD SVG 20010904//EN"
 "http://www.w3.org/TR/2001/REC-SVG-20010904/DTD/svg10.dtd">
<svg version="1.0" xmlns="http://www.w3.org/2000/svg"
 width="1975.000000pt" height="2223.000000pt" viewBox="0 0 1975.000000 2223.000000"
 preserveAspectRatio="xMidYMid meet">

<g transform="translate(0.000000,2223.000000) scale(0.100000,-0.100000)"
fill="#000000" stroke="none">
<path d="M9985 18037 c-27 -13 -96 -60 -152 -105 -342 -272 -626 -458 -953
-621 -655 -327 -1341 -505 -2350 -611 -238 -25 -356 -28 -790 -25 -360 3 -468
0 -519 -11 -198 -42 -281 -153 -326 -434 -21 -134 -30 -345 -30 -710 0 -262
12 -1032 20 -1215 2 -62 15 -809 24 -1355 9 -570 6 -1432 -5 -1710 -11 -281
-12 -913 -2 -1095 75 -1325 577 -2383 1653 -3484 752 -769 1884 -1603 3206
-2363 191 -110 238 -128 332 -128 113 0 155 21 742 370 2082 1238 3252 2305
3861 3520 119 238 196 423 284 690 179 538 278 1082 334 1835 6 75 13 216 26
500 7 159 4 1773 -4 1930 -2 33 -6 209 -10 390 -4 182 -9 377 -11 435 -2 58
-7 258 -10 445 -3 187 -8 403 -10 480 -2 77 -7 408 -10 735 -8 812 -13 899
-65 1005 -32 68 -63 95 -136 120 -44 16 -104 18 -579 20 -291 1 -543 5 -560 8
-16 3 -91 11 -165 17 -573 48 -1386 221 -1947 415 -447 153 -855 361 -1166
594 -51 37 -159 123 -242 189 -181 147 -244 183 -329 189 -50 3 -70 0 -111
-20z m345 -845 c9 -4 -104 -64 -178 -93 -152 -62 -385 -98 -516 -79 l-38 5 87
64 c99 71 157 100 222 110 37 5 407 -1 423 -7z m300 -184 c25 -10 69 -35 97
-55 60 -41 59 -45 -14 -90 -40 -25 -44 -31 -38 -57 8 -43 32 -65 65 -61 16 2
83 16 148 30 l120 27 93 -42 c52 -23 98 -46 103 -50 11 -11 -85 -59 -195 -98
-89 -32 -236 -66 -329 -77 -68 -7 -368 -8 -380 0 -6 3 21 29 58 57 73 55 82
65 82 90 0 30 -36 29 -150 -7 -106 -33 -256 -73 -345 -91 -22 -5 -176 -8 -342
-9 -286 0 -300 1 -270 16 60 31 310 121 371 134 34 7 76 20 94 29 83 43 154
51 467 51 165 1 310 5 322 9 28 9 35 30 21 61 -11 24 -37 45 -127 100 -47 29
-45 38 9 53 42 11 80 6 140 -20z m-1138 -188 c-20 -17 -99 -50 -263 -110 -30
-11 -69 -34 -86 -50 -57 -55 -98 -64 -363 -75 l-125 -5 33 20 c186 115 584
235 787 239 l40 0 -23 -19z m2149 -281 c33 -13 59 -27 59 -31 0 -13 -106 -8
-245 10 -138 19 -147 27 -46 47 68 14 157 4 232 -26z m-2422 -143 c30 -8 58
-19 62 -23 11 -11 -218 -160 -292 -190 -94 -38 -183 -46 -427 -39 -123 4 -229
9 -237 12 -24 10 324 173 463 219 141 46 309 54 431 21z m-839 -25 c-108 -56
-340 -146 -447 -175 -181 -48 -382 -58 -533 -25 l-54 12 48 24 c183 93 677
196 966 201 l95 2 -75 -39z m2117 -32 c3 -16 11 -33 18 -39 22 -18 78 -14 140
10 79 30 206 36 428 21 284 -19 342 -23 344 -25 6 -5 -289 -98 -337 -106 -77
-13 -177 -18 -460 -26 -135 -3 -267 -8 -295 -9 -27 -2 -255 -6 -505 -10 l-455
-7 65 42 c110 70 261 139 340 156 58 13 142 17 368 20 162 1 296 4 298 7 14
13 46 -8 51 -34z m1847 -24 c49 -9 93 -18 98 -21 28 -17 -228 -104 -382 -129
-116 -20 -334 -24 -494 -11 l-99 8 29 19 c50 31 226 97 316 119 171 40 357 46
532 15z m671 -111 c100 -16 253 -52 273 -64 9 -4 -8 -15 -48 -30 -34 -13 -64
-29 -67 -37 -7 -19 28 -55 86 -86 65 -36 166 -51 264 -40 42 5 74 6 70 2 -5
-4 -71 -35 -148 -69 -175 -78 -291 -136 -300 -150 -5 -7 -11 -5 -20 7 -10 13
-33 19 -91 24 -44 3 -85 4 -93 1 -10 -4 -12 -20 -9 -60 4 -45 10 -60 33 -80
32 -27 74 -25 107 5 17 15 18 15 18 -2 0 -16 6 -17 51 -12 40 5 70 0 143 -23
136 -44 182 -44 249 1 53 35 59 59 25 96 -12 13 -20 25 -17 27 10 9 361 155
429 179 108 37 177 42 306 23 60 -9 134 -23 164 -30 l55 -13 -64 -33 c-120
-60 -133 -63 -311 -65 -169 -2 -220 -10 -360 -55 -103 -34 -111 -53 -40 -102
38 -27 40 -30 40 -83 0 -56 18 -117 39 -129 29 -18 94 -5 212 42 216 87 393
120 573 107 56 -4 104 -9 109 -12 12 -8 -50 -52 -119 -84 -74 -34 -188 -63
-311 -80 -106 -13 -478 -6 -553 11 -137 31 -165 33 -307 16 -185 -22 -217 -21
-443 14 -270 40 -363 48 -530 46 -198 -4 -222 -13 -298 -114 -22 -30 -99 -73
-154 -86 l-26 -6 29 29 c24 24 29 38 29 75 0 39 -3 46 -22 50 -28 6 -165 15
-232 16 -48 0 -49 0 -32 19 15 16 23 18 44 10 38 -15 99 -14 118 2 13 10 15
27 12 77 l-4 64 58 -6 c32 -4 83 -16 114 -26 32 -11 64 -20 73 -20 9 0 50 20
91 44 l74 43 44 -28 c108 -68 234 -83 333 -37 61 28 139 96 139 121 0 9 -27
32 -60 53 -33 20 -60 38 -60 40 0 1 69 42 153 90 217 124 239 140 235 172 -4
35 -41 47 -168 57 -52 3 -144 13 -205 20 -60 8 -112 12 -116 9 -13 -8 -31 -74
-25 -90 3 -8 29 -26 58 -39 l53 -23 -105 -50 c-206 -99 -360 -136 -565 -136
-141 -1 -255 10 -255 22 1 4 83 34 182 67 234 77 448 162 557 222 148 80 178
94 226 107 58 14 170 11 290 -10z m-6385 -91 c0 -3 -19 -30 -41 -59 -70 -91
-39 -124 116 -124 84 0 405 24 600 44 76 8 140 14 142 13 1 -2 -12 -20 -29
-41 -35 -43 -40 -92 -12 -113 15 -11 24 -9 58 11 90 52 239 91 427 111 100 10
403 15 393 6 -5 -5 -108 -53 -229 -106 -274 -121 -310 -139 -329 -166 -28 -41
4 -79 62 -73 270 29 338 38 416 54 124 26 191 50 310 114 108 57 189 87 301
110 87 18 306 43 445 50 58 3 157 9 221 12 64 3 318 6 565 7 l449 1 80 -33
c100 -43 152 -44 267 -9 84 26 335 57 356 44 5 -3 61 -6 126 -7 93 -1 115 -4
105 -13 -19 -17 -169 -84 -254 -113 -144 -49 -175 -52 -626 -54 -442 -2 -666
-11 -712 -28 -32 -12 -36 -45 -8 -60 39 -22 347 -58 816 -97 185 -15 238 -24
259 -42 57 -52 92 -53 240 -7 193 60 395 84 593 70 l108 -8 -40 -14 c-91 -32
-287 -85 -403 -108 -222 -45 -370 -56 -692 -54 -267 2 -299 1 -333 -16 -41
-19 -70 -63 -65 -98 3 -25 38 -44 143 -79 70 -23 71 -23 615 -22 300 0 590 3
645 7 l100 7 -60 -21 c-104 -36 -152 -85 -163 -167 l-7 -47 -525 0 c-489 0
-528 -1 -573 -19 -54 -20 -79 -55 -58 -80 6 -7 37 -17 68 -21 32 -4 65 -8 74
-10 9 -2 84 -11 165 -19 82 -9 165 -18 184 -21 102 -13 293 -20 525 -20 221 0
269 3 317 18 87 27 99 77 32 130 -20 15 -23 22 -13 28 21 11 382 157 473 190
l78 29 264 3 c145 1 264 0 264 -3 0 -3 -55 -24 -123 -48 -67 -23 -151 -58
-187 -76 -36 -18 -92 -47 -125 -64 -68 -36 -142 -43 -296 -28 -136 12 -181
-17 -166 -108 l5 -33 -136 -60 c-155 -67 -161 -74 -118 -148 17 -28 22 -46 15
-50 -6 -4 -88 -6 -182 -5 -95 1 -177 2 -184 1 -6 0 -16 -14 -21 -31 -10 -27
-8 -33 21 -61 69 -65 88 -70 295 -68 261 2 406 24 446 68 33 36 7 68 -79 96
-18 6 -16 10 20 41 88 77 170 135 204 143 50 14 661 13 639 0 -10 -5 -167 -68
-350 -138 -433 -167 -501 -195 -554 -226 -68 -40 -69 -79 -5 -156 l26 -31 275
115 c151 64 356 149 455 191 l180 75 6 -48 c12 -89 33 -108 132 -119 l62 -8
-109 -27 c-157 -40 -299 -95 -415 -161 -90 -52 -107 -58 -155 -57 -29 0 -60 2
-67 3 -9 2 -15 -7 -17 -23 -8 -70 204 -111 643 -124 105 -3 219 -8 255 -12
l65 -6 -150 -36 c-82 -20 -171 -47 -198 -60 -49 -24 -98 -82 -119 -142 -8 -23
-14 -28 -27 -23 -92 40 -248 68 -448 81 -57 3 -103 8 -103 11 0 3 20 28 44 56
24 28 55 68 69 90 25 36 26 40 11 67 l-15 29 -107 0 c-113 0 -152 -12 -152
-48 0 -16 34 -82 79 -156 l22 -35 -223 7 c-414 13 -1148 8 -1266 -9 -82 -12
-122 -32 -122 -64 0 -31 29 -51 110 -75 60 -18 242 -52 335 -64 208 -25 329
-30 690 -31 418 0 567 6 800 30 77 8 171 18 209 22 47 4 75 12 87 24 13 13 46
22 106 29 84 10 97 13 143 26 14 4 20 1 20 -10 0 -41 78 -83 189 -100 l73 -11
-327 -127 -327 -126 -71 30 c-95 41 -166 41 -245 2 -102 -52 -94 -83 25 -104
90 -15 99 -22 114 -80 7 -28 19 -56 26 -62 10 -8 49 3 159 46 193 76 269 95
358 89 110 -7 127 -7 181 0 71 10 117 40 113 74 -2 22 -12 29 -53 43 -44 15
-48 18 -30 27 11 6 150 63 309 128 330 132 285 126 519 78 71 -15 122 -30 115
-34 -7 -4 -152 -48 -323 -99 -288 -86 -315 -96 -383 -142 -245 -167 -593 -264
-1074 -297 -116 -9 -923 -6 -998 3 -35 4 -132 8 -545 23 -559 21 -1275 -3
-1315 -42 -35 -36 70 -150 167 -180 100 -32 242 -34 718 -10 83 4 152 9 155
10 3 2 109 7 235 12 274 10 831 9 1375 -1 438 -9 431 -8 454 -76 14 -43 24
-43 136 3 109 46 216 67 332 67 122 0 143 11 143 70 -1 25 -3 51 -5 58 -9 26
373 191 538 233 67 18 117 23 214 23 74 1 131 -3 137 -9 7 -7 -27 -30 -108
-73 -175 -92 -185 -95 -341 -96 -125 -1 -138 -3 -180 -26 -25 -14 -51 -38 -58
-53 -17 -36 -8 -112 19 -156 31 -52 55 -55 224 -36 83 10 254 19 380 21 l230
4 -95 -46 c-237 -115 -339 -146 -477 -143 -156 2 -202 2 -298 -2 -97 -4 -114
2 -172 52 -34 29 -50 30 -109 3 -123 -54 -759 -64 -3514 -52 -905 4 -1684 4
-1733 -1 -48 -4 -93 -13 -99 -19 -20 -20 10 -64 62 -89 113 -56 264 -76 785
-108 309 -19 1564 -13 2635 11 419 9 1405 10 1582 1 180 -10 345 -30 361 -46
11 -11 -3 -20 -93 -64 -34 -17 -47 -30 -54 -54 -11 -42 -1 -80 25 -88 19 -6
18 -8 -12 -23 -42 -22 -46 -37 -16 -57 47 -30 188 -44 422 -40 219 3 314 16
350 45 66 55 -82 92 -372 94 -95 1 -163 4 -150 7 435 124 682 175 872 180 129
3 265 -2 265 -9 0 -5 -46 -30 -102 -57 -360 -171 -466 -225 -471 -238 -7 -20
47 -103 86 -131 20 -15 42 -20 84 -20 48 1 73 10 169 59 l112 57 57 -13 c56
-12 58 -12 76 10 11 13 19 39 19 60 0 35 2 37 60 63 l59 26 11 -55 c9 -43 9
-61 -1 -85 -16 -38 -55 -57 -435 -208 -153 -61 -289 -115 -301 -120 -20 -8
-29 -3 -67 34 -60 60 -100 80 -166 80 -67 1 -123 -25 -198 -90 -70 -61 -68
-81 11 -107 31 -10 57 -22 57 -27 0 -4 -15 -11 -34 -14 -18 -4 -74 -26 -125
-51 -101 -49 -164 -70 -261 -84 -92 -14 -274 -30 -420 -36 -69 -3 -156 -8
-195 -10 -79 -5 -1392 -5 -1530 0 -49 2 -236 6 -415 10 -179 4 -344 9 -368 10
-24 1 -161 6 -305 9 -144 4 -289 9 -322 11 -33 2 -166 7 -295 10 -129 4 -255
8 -280 10 -89 6 -577 19 -730 20 -148 0 -158 -1 -230 -29 -67 -27 -87 -30
-190 -30 -76 0 -155 7 -235 22 -66 12 -154 27 -195 32 -76 11 -454 15 -500 5
-14 -3 -144 -8 -290 -11 -272 -6 -278 -7 -338 -52 -29 -22 -33 -30 -30 -66 l3
-41 80 -23 c97 -29 105 -29 2345 -37 828 -3 1663 -7 1855 -10 193 -3 640 -7
995 -10 355 -3 740 -8 855 -10 440 -10 652 -16 715 -20 36 -2 121 -7 190 -10
129 -7 258 -20 266 -28 3 -2 -46 -19 -108 -37 -384 -109 -483 -145 -495 -176
-9 -23 84 -109 152 -140 95 -45 151 -29 325 96 233 166 420 235 664 245 314
14 325 16 386 78 34 35 38 62 13 89 -10 11 -13 22 -7 27 18 16 145 62 155 55
6 -4 8 -30 5 -68 -3 -33 -5 -85 -5 -114 -1 -67 -23 -89 -146 -148 -171 -81
-269 -95 -415 -60 -161 40 -231 32 -390 -40 -113 -52 -116 -79 -12 -107 148
-42 255 -51 614 -51 190 -1 349 -4 353 -7 3 -4 -36 -25 -88 -47 -327 -144
-365 -148 -1510 -150 -678 -2 -714 -3 -770 -24 -59 -22 -64 -90 -12 -142 66
-66 175 -81 325 -45 121 30 423 34 650 9 186 -20 292 -29 365 -31 48 -1 43 -3
-100 -50 -158 -53 -405 -120 -515 -140 -36 -7 -157 -13 -270 -14 -229 -1 -279
-11 -291 -55 -3 -14 -2 -33 3 -42 16 -32 59 -38 508 -63 52 -3 138 -8 190 -11
52 -3 118 -7 145 -9 28 -2 106 -7 175 -11 69 -3 127 -8 128 -10 2 -1 -42 -37
-99 -79 l-102 -76 -341 6 c-188 3 -375 8 -416 10 -41 3 -110 1 -154 -4 -76 -9
-80 -11 -127 -57 -27 -27 -49 -55 -49 -64 0 -13 51 -62 87 -84 30 -17 371 -36
661 -36 7 0 3 -9 -8 -20 -16 -16 -20 -33 -20 -84 0 -101 10 -101 130 -5 56 44
105 90 107 100 5 19 18 19 352 19 242 -1 341 -4 328 -11 -33 -19 -190 -69
-311 -100 -222 -56 -533 -100 -821 -116 -259 -15 -1126 -7 -1305 12 -14 1
-104 6 -200 9 -96 4 -186 10 -200 12 -14 2 -176 7 -360 10 -472 9 -675 -14
-802 -90 -52 -31 -85 -73 -69 -89 5 -5 46 -20 92 -34 83 -24 88 -24 329 -18
135 4 265 8 290 10 25 1 232 6 460 10 228 4 417 9 420 10 10 6 1709 9 1714 4
3 -3 -6 -28 -21 -56 -23 -43 -25 -53 -14 -67 7 -9 26 -16 42 -16 35 0 148 42
198 73 35 22 42 22 416 24 l380 2 -320 -108 c-425 -145 -420 -142 -413 -196 3
-24 16 -33 133 -82 169 -71 213 -80 291 -60 33 9 145 54 248 101 103 47 189
86 192 86 2 0 4 -9 4 -21 0 -11 18 -42 40 -68 22 -26 40 -53 40 -59 0 -27 -71
-151 -99 -175 -21 -17 -48 -28 -86 -32 -30 -4 -83 -20 -117 -37 -97 -46 -127
-46 -251 -3 -89 31 -118 37 -166 33 -67 -5 -155 -45 -198 -90 l-28 -30 32 -27
c18 -15 56 -39 85 -54 l51 -27 -104 -49 c-303 -145 -598 -192 -885 -142 -119
21 -247 28 -689 36 -159 3 -380 8 -490 10 -110 2 -499 7 -865 10 -366 3 -678
8 -694 10 -40 7 -3070 6 -3226 0 -177 -7 -244 -14 -334 -32 -96 -19 -198 -13
-253 15 -53 28 -105 85 -149 166 l-38 69 390 -6 c214 -4 403 -9 419 -11 17 -3
89 -10 160 -17 72 -6 137 -12 145 -14 8 -2 65 -6 125 -10 61 -4 119 -10 130
-12 23 -5 1195 -4 1204 1 3 2 339 7 746 10 407 4 812 9 900 11 88 2 691 7
1340 11 l1180 7 59 -31 c76 -41 131 -42 205 -5 61 30 181 137 181 162 0 35
-47 69 -107 77 -51 6 -499 3 -1773 -11 -806 -9 -2020 -15 -3665 -17 l-1650 -2
-47 21 c-48 22 -72 55 -103 144 -16 46 -11 49 78 49 103 1 183 42 222 114 33
61 30 61 -344 112 -26 3 -53 15 -66 29 -23 22 -65 142 -65 182 0 51 57 57 350
38 202 -14 622 -16 790 -4 233 16 418 34 426 42 2 1 6 22 10 45 6 38 4 42 -18
51 -22 8 -126 20 -318 37 -121 10 -445 12 -580 3 -69 -5 -201 -18 -295 -30
-303 -39 -352 -32 -395 51 -22 44 -50 150 -50 194 l0 29 858 -7 c471 -4 893
-9 937 -11 44 -2 231 -7 415 -10 184 -3 353 -8 375 -10 22 -2 160 -7 306 -10
146 -4 283 -8 305 -10 21 -3 170 -7 329 -10 373 -6 426 3 508 94 39 43 45 62
25 79 -21 17 -283 42 -613 59 -77 4 -885 7 -1795 8 l-1655 0 -3 103 c-3 85 -1
103 12 108 9 3 62 1 118 -6 136 -16 346 -14 488 5 257 33 319 37 475 32 88 -3
221 -14 295 -24 126 -17 248 -18 1890 -18 1550 0 2603 8 2710 19 19 3 98 7
175 11 77 3 150 8 163 11 67 13 72 15 72 33 0 10 -6 21 -14 24 -23 9 -161 25
-266 32 -52 3 -126 8 -165 10 -38 2 -140 7 -225 10 -85 3 -195 7 -245 10 -49
2 -207 7 -350 10 -143 3 -316 8 -385 10 -69 2 -309 7 -535 10 -225 3 -477 8
-560 10 -82 2 -553 7 -1045 10 -492 4 -917 8 -945 10 -27 2 -413 4 -857 4
l-808 1 0 100 c0 98 0 100 25 106 14 4 101 4 193 0 256 -9 2510 -21 3917 -21
1102 0 1960 8 2120 20 28 2 87 7 132 10 45 3 88 8 97 11 17 6 22 39 8 48 -11
7 -156 24 -262 31 -47 3 -112 8 -145 10 -33 2 -127 7 -210 10 -82 3 -184 8
-225 10 -41 2 -181 7 -310 10 -129 3 -291 7 -360 10 -118 5 -220 7 -840 20
-833 18 -1908 26 -2917 21 -731 -3 -1165 -1 -1188 5 -44 12 -50 33 -40 145 l7
86 171 -6 c177 -6 435 -12 897 -21 146 -3 346 -7 445 -10 99 -3 333 -7 520
-10 187 -3 403 -8 480 -10 131 -4 468 -8 1715 -24 608 -7 2289 -5 2475 3 72 3
184 9 250 12 276 12 429 33 439 60 9 24 -52 82 -122 116 l-67 33 -170 0 c-163
0 -528 -13 -590 -21 -85 -11 -1242 -24 -1655 -20 -561 7 -991 15 -1150 21 -63
2 -216 7 -340 10 -534 13 -651 16 -760 20 -63 2 -225 7 -360 11 -135 3 -259 9
-277 14 -45 11 -342 13 -356 2 -7 -6 -327 -13 -779 -17 l-768 -6 -1 58 c-1 32
-2 74 -4 93 -2 19 -1 48 2 64 l5 28 87 -6 c48 -4 96 -9 107 -10 10 -2 62 -7
114 -11 52 -3 115 -8 140 -10 110 -8 181 31 183 100 1 30 -5 43 -31 66 -51 46
-92 51 -331 44 -145 -5 -225 -3 -243 4 -28 10 -28 11 -28 109 l0 99 318 -1
c302 -1 319 0 362 20 46 21 120 89 120 110 0 6 -6 16 -13 22 -7 6 -159 27
-337 47 -179 19 -349 40 -377 46 -62 12 -81 33 -75 84 l4 35 452 -2 c248 -2
487 1 531 5 44 4 148 14 230 22 83 8 182 18 220 22 137 16 371 7 590 -21 323
-42 446 -37 565 23 44 22 55 32 55 52 0 19 -11 29 -53 50 -157 77 -395 92
-1121 72 -548 -15 -1450 -7 -1470 13 -10 10 -11 173 -1 179 5 3 338 8 739 10
401 2 798 6 883 10 485 17 518 21 518 55 0 31 -31 40 -187 50 -289 18 -510 22
-1798 34 l-150 1 0 313 0 313 800 -3 c1155 -4 3923 -4 4380 1 847 9 1382 32
1463 62 12 5 22 17 22 28 0 25 -42 37 -155 46 -44 4 -91 9 -105 12 -32 6 -945
12 -2835 17 -830 3 -1562 7 -1625 10 -63 3 -209 7 -325 11 -600 16 -914 29
-1390 55 -93 5 -182 10 -197 10 -36 0 -55 30 -64 104 l-7 59 509 -8 c280 -4
534 -9 564 -10 30 -2 231 -6 445 -10 215 -4 415 -9 445 -10 131 -7 1119 -20
1485 -20 384 0 931 11 957 20 7 2 48 6 91 10 107 8 235 31 253 46 23 19 16 38
-34 88 -35 35 -60 51 -97 60 -40 10 -502 12 -2225 10 -2166 -2 -2261 -1 -2343
30 -31 12 -49 43 -43 73 3 13 7 38 10 56 3 19 6 36 8 38 2 2 964 5 2138 6
2191 3 2180 3 2180 39 0 17 -42 26 -140 33 -52 4 -124 9 -160 11 -36 2 -130 7
-210 10 -80 3 -183 8 -230 10 -47 2 -152 7 -235 10 -82 3 -184 7 -225 10 -41
2 -160 7 -265 10 -104 3 -215 8 -245 10 -30 2 -131 7 -225 10 -93 3 -213 8
-265 10 -52 2 -160 7 -240 10 -80 3 -188 8 -240 10 -52 2 -160 7 -240 10 -80
3 -179 8 -220 10 -41 2 -151 7 -245 10 -93 3 -195 8 -225 10 -30 2 -140 7
-245 11 -104 4 -201 8 -215 9 -14 2 -71 3 -127 4 -124 1 -135 9 -131 84 3 47
5 51 33 59 17 4 183 6 370 3 187 -3 502 -7 700 -10 198 -2 596 -8 885 -12 875
-13 1795 -10 1863 5 76 18 99 40 95 93 l-3 41 -90 29 c-82 28 -98 30 -185 25
-52 -4 -106 -8 -120 -10 -91 -15 -752 -24 -850 -12 -14 2 -95 7 -180 11 -85 3
-171 8 -190 10 -19 2 -118 7 -220 10 -102 4 -201 9 -220 12 -19 2 -451 6 -960
9 l-925 4 0 95 0 95 2062 0 c1134 0 2068 3 2077 6 27 10 19 52 -11 68 -76 38
-353 74 -708 91 -60 3 -144 8 -185 10 -41 3 -158 7 -260 10 -102 3 -246 8
-320 10 -128 4 -359 9 -1000 20 -157 2 -557 7 -890 11 -333 3 -625 8 -650 9
-25 2 -62 4 -82 4 l-38 1 0 100 0 100 408 0 c586 0 1619 14 1827 26 133 7 172
13 186 31 21 24 -12 41 -94 48 -184 15 -1169 30 -2040 30 -184 0 -287 4 -288
10 -2 27 1 188 4 191 2 2 462 4 1023 5 998 1 1160 5 1190 29 21 18 19 87 -4
94 -9 3 -172 4 -362 1 -579 -8 -1661 -6 -1726 4 -87 13 -122 33 -130 75 -3 19
-3 43 0 53 3 10 6 46 7 81 2 41 6 62 14 62 7 0 57 -16 111 -36 l99 -35 155 5
c389 15 439 21 480 61 31 30 63 42 170 65 94 20 120 23 120 13z m7280 -911
c37 -2 50 -5 40 -11 -8 -5 -99 -41 -201 -79 -103 -39 -251 -98 -330 -132 -177
-77 -191 -79 -255 -47 -71 36 -157 59 -247 66 l-77 6 44 54 c25 30 44 59 43
65 -1 6 -12 25 -24 42 -12 17 -20 33 -18 35 4 4 934 5 1025 1z m802 -35 c23
-36 3 -98 -71 -213 -18 -29 -35 -70 -38 -92 -5 -38 -4 -40 31 -52 54 -18 76
-52 76 -119 0 -31 -3 -66 -6 -78 l-6 -23 -322 0 -321 1 183 93 c100 51 187 97
193 103 7 7 9 23 5 37 -5 22 -12 26 -46 26 l-39 0 21 46 c14 33 17 49 9 57 -7
7 -52 7 -155 -1 -162 -13 -173 -16 -182 -44 -7 -24 17 -53 65 -78 l34 -17 -44
-26 c-148 -87 -386 -162 -585 -184 -86 -10 -441 -7 -509 4 l-50 8 140 59 c77
33 187 77 245 99 97 37 108 39 148 28 23 -6 63 -11 88 -11 81 0 106 31 62 77
-12 13 -20 25 -17 27 8 8 684 268 733 282 64 18 345 11 358 -9z m-423 -746
l113 -1 -36 -40 c-48 -54 -38 -78 29 -70 11 1 67 17 125 35 58 18 121 35 142
38 42 6 48 -4 48 -89 0 -81 6 -79 -294 -79 -232 0 -267 3 -316 20 -75 26 -306
28 -395 2 -49 -14 -103 -17 -310 -17 -284 0 -278 -4 -108 73 203 92 479 137
798 130 50 -1 141 -2 204 -2z m419 -505 c-2 -58 -9 -100 -17 -110 -12 -14 -47
-16 -274 -16 -172 0 -258 3 -251 10 9 9 519 208 538 209 4 1 7 -41 4 -93z
m-523 74 c23 -1 -299 -138 -425 -180 -79 -27 -97 -29 -260 -31 -96 -1 -205 -5
-242 -8 -36 -4 -64 -3 -62 1 3 5 11 8 17 8 7 0 84 36 172 80 231 115 348 140
630 135 83 -2 159 -4 170 -5z m503 -487 l-3 -58 -153 -1 c-84 -1 -150 1 -147
5 8 8 276 109 293 110 10 1 12 -14 10 -56z m11 -420 c2 -76 -9 -83 -132 -84
-56 0 -148 -1 -204 -3 -57 -1 -103 1 -103 4 0 3 96 47 213 97 l212 91 6 -26
c4 -15 7 -50 8 -79z m-11 -400 c-2 -28 -8 -47 -14 -46 -6 1 -45 3 -87 4 -42 1
-77 5 -77 9 0 6 157 79 173 80 4 0 7 -21 5 -47z m-273 -1109 c-147 -72 -278
-119 -393 -139 -79 -15 -264 -20 -275 -9 -14 14 331 161 420 179 37 8 120 17
183 21 63 4 116 7 117 8 1 0 19 2 40 3 33 1 21 -7 -92 -63z m158 -1053 c-3
-14 8 -27 43 -51 45 -31 46 -34 28 -48 -28 -21 -189 -96 -275 -127 -159 -58
-269 -76 -481 -82 -114 -3 -198 -2 -198 3 0 6 815 304 887 324 0 0 -1 -9 -4
-19z m117 -438 c0 -102 -4 -135 -18 -163 -37 -75 -143 -102 -391 -99 -176 3
-466 21 -475 30 -4 4 26 20 66 36 40 17 197 82 349 146 269 113 431 175 457
176 9 1 12 -31 12 -126z m-30 -537 c-7 -47 -16 -89 -19 -95 -7 -10 -501 -21
-501 -11 0 8 450 180 494 190 17 4 33 5 35 3 2 -1 -2 -41 -9 -87z m-486 -1228
c-12 -39 -41 -92 -61 -110 -30 -28 -99 -38 -263 -38 l-155 0 50 32 c92 58 240
109 385 131 51 8 52 8 44 -15z m-1384 -286 l35 -9 -137 -67 c-75 -36 -138 -72
-141 -79 -6 -17 19 -63 38 -71 32 -12 74 -6 157 23 268 94 518 144 823 165
201 14 255 17 255 11 0 -3 -16 -30 -36 -59 -40 -61 -39 -87 4 -110 31 -16 24
-21 -48 -31 -68 -9 -90 -28 -90 -75 0 -22 7 -57 15 -78 l16 -38 -122 -120
c-67 -65 -174 -180 -239 -254 -64 -74 -134 -151 -155 -169 -55 -48 -117 -73
-184 -73 -64 -1 -141 11 -141 20 0 4 55 29 123 56 131 52 157 68 157 98 0 44
-18 58 -73 58 -46 0 -79 -12 -248 -92 -178 -84 -201 -92 -274 -98 -44 -4
-1284 -5 -2755 -3 -2382 4 -2680 6 -2718 20 -33 11 -58 33 -102 87 -33 39 -56
72 -52 74 4 1 1190 3 2635 5 l2628 2 -2 -25 c-4 -78 17 -84 142 -35 109 42
157 71 193 117 28 37 59 140 49 164 -5 15 -261 16 -2672 13 -1466 -2 -2733 0
-2816 4 -202 11 -380 34 -429 56 -23 10 -65 41 -94 69 l-52 50 27 6 c92 18
456 20 2548 18 809 -1 1533 0 1610 3 419 16 615 47 615 100 0 20 -9 24 -118
50 -203 49 -224 50 -957 50 -659 0 -2025 -11 -2451 -20 -111 -3 -464 -5 -785
-6 -648 -1 -642 -2 -692 64 -22 29 -57 90 -57 100 0 2 793 7 1763 11 969 4
1861 9 1982 11 121 2 585 6 1030 10 446 4 812 9 815 12 9 8 945 -6 980 -15z
m-655 -1191 c110 -12 220 -23 245 -26 25 -2 122 -11 215 -20 94 -8 190 -17
215 -21 l44 -6 -24 -19 c-42 -32 -119 -50 -240 -55 -63 -2 -734 -6 -1490 -9
-756 -2 -1415 -6 -1465 -9 -49 -2 -196 -7 -325 -11 -230 -5 -374 -10 -575 -20
-55 -2 -181 -7 -280 -11 -99 -3 -198 -8 -220 -9 -97 -9 -559 -5 -619 5 -80 13
-148 34 -196 63 -34 20 -130 106 -130 117 0 3 366 6 813 6 851 2 2587 14 2647
19 19 2 206 6 415 10 209 4 381 8 383 9 1 2 89 4 195 5 136 1 251 -4 392 -18z
m-555 -401 l405 -1 -40 -32 c-22 -18 -51 -43 -64 -55 -22 -22 -22 -25 -7 -40
12 -13 39 -18 101 -21 105 -4 188 10 319 54 55 18 101 33 102 32 1 -1 -51 -45
-115 -98 l-118 -96 -84 13 c-81 13 -299 37 -444 48 -608 48 -1792 12 -1961
-59 -46 -19 -46 -51 -1 -70 62 -26 327 -50 672 -61 105 -3 224 -7 265 -9 41
-2 356 -7 700 -10 344 -4 626 -9 628 -10 9 -7 -157 -100 -234 -131 -201 -81
-73 -75 -1594 -79 -745 -1 -1395 1 -1445 6 -181 18 -275 53 -366 138 l-54 50
430 1 c237 0 457 3 490 6 91 7 318 34 333 39 39 14 -23 92 -107 134 -105 54
-336 87 -531 77 -63 -3 -180 -9 -260 -13 -80 -5 -224 -8 -320 -7 -269 0 -390
32 -504 132 -33 29 -64 53 -70 54 -74 12 411 15 1804 12 916 -2 1847 -4 2070
-4z m-457 -796 c3 -4 -29 -35 -73 -70 -81 -66 -100 -94 -80 -119 18 -21 66
-18 161 9 46 14 85 23 87 21 11 -10 -112 -77 -168 -91 -76 -20 -435 -24 -960
-12 -168 5 -458 11 -645 14 -287 5 -345 9 -372 23 -46 23 -323 214 -323 223 0
9 2364 11 2373 2z m-1113 -430 c409 -8 706 -21 725 -31 14 -8 14 -11 -2 -25
-24 -20 -151 -95 -363 -213 -96 -53 -201 -113 -232 -132 l-58 -34 -97 59
c-461 279 -566 344 -600 367 l-38 27 195 -6 c107 -4 319 -9 470 -12z"/>
<path d="M9305 15808 c-45 -25 -135 -100 -135 -112 0 -14 76 -89 107 -105 28
-14 68 -14 96 0 36 18 117 102 117 120 0 22 -115 109 -143 109 -12 0 -31 -6
-42 -12z"/>
<path d="M9907 14976 c-10 -24 -8 -68 2 -85 9 -14 111 -28 190 -27 42 1 45 3
53 34 17 64 -5 77 -157 88 -72 6 -83 5 -88 -10z"/>
<path d="M10126 14649 c-174 -14 -297 -46 -322 -84 -32 -49 2 -81 118 -111 77
-20 448 -28 578 -13 126 15 302 47 312 57 5 5 11 24 14 43 6 34 6 34 -78 77
l-83 43 -220 -2 c-121 -2 -264 -6 -319 -10z"/>
<path d="M10720 14205 c-198 -21 -219 -29 -201 -77 19 -51 40 -53 516 -53 835
0 1127 13 1142 52 14 37 -41 56 -197 68 -47 4 -98 9 -115 12 -16 2 -253 6
-525 8 -363 2 -528 0 -620 -10z"/>
<path d="M10385 13841 c-38 -22 -85 -77 -85 -98 0 -18 56 -72 76 -74 8 -1 20
-2 27 -3 46 -8 170 90 165 129 -4 25 -80 65 -123 65 -16 0 -44 -8 -60 -19z"/>
<path d="M5810 13090 c-36 -4 -82 -15 -102 -24 -33 -14 -38 -21 -38 -50 0 -33
18 -57 54 -70 25 -9 165 -14 566 -21 184 -3 378 -8 430 -10 52 -2 185 -7 295
-10 110 -4 268 -11 350 -17 210 -14 649 -18 780 -7 61 5 154 19 208 30 61 13
140 22 210 22 104 2 408 -10 474 -18 51 -6 287 -19 320 -18 71 3 134 73 114
127 -6 14 -22 33 -38 43 -25 17 -73 18 -673 23 -967 8 -2876 8 -2950 0z"/>
<path d="M8430 12290 c-116 -15 -218 -67 -204 -104 17 -44 250 -86 564 -101
69 -4 130 -8 137 -10 80 -25 2643 -25 3273 0 58 2 190 7 294 10 198 5 209 8
204 50 -4 26 -43 45 -98 45 -25 0 -74 5 -110 10 -257 36 -370 50 -475 59 -66
6 -149 14 -185 17 -100 9 -521 6 -650 -5 -63 -6 -158 -13 -210 -17 -52 -3 -97
-8 -100 -9 -14 -8 -341 -20 -535 -20 -321 0 -542 10 -1070 50 -355 27 -451 32
-605 33 -96 0 -200 -4 -230 -8z"/>
<path d="M13558 11929 c-43 -10 -139 -37 -215 -60 l-138 -42 -650 8 c-357 4
-679 9 -715 10 -36 1 -231 5 -435 9 -203 3 -437 8 -520 11 -82 3 -298 7 -480
10 -181 3 -447 7 -590 10 -774 14 -1007 17 -1725 17 -432 0 -848 -3 -925 -6
-399 -18 -543 -29 -603 -49 -33 -11 -37 -16 -40 -50 -3 -34 0 -39 30 -51 57
-24 236 -32 883 -41 996 -13 1672 -23 2005 -30 129 -3 388 -7 575 -10 187 -3
439 -7 560 -10 121 -3 326 -7 455 -10 129 -3 296 -7 370 -10 74 -2 275 -7 445
-10 171 -4 348 -8 395 -10 190 -9 800 -6 882 5 120 15 150 27 338 140 172 103
210 131 210 155 0 29 -33 33 -112 14z"/>
<path d="M12184 10195 c-72 -41 -85 -66 -46 -93 37 -25 149 -72 172 -72 25 0
61 47 53 68 -15 40 -85 132 -101 132 -9 0 -45 -16 -78 -35z"/>
<path d="M11797 9874 c-1 -1 -67 -4 -147 -8 -80 -4 -170 -9 -200 -11 -149 -12
-289 -16 -632 -15 -205 0 -384 2 -398 4 -14 2 -95 8 -180 12 -281 16 -375 5
-513 -58 -88 -41 -97 -57 -55 -98 48 -45 80 -60 156 -70 82 -10 1788 -12 2072
-1 191 7 209 9 262 33 44 21 59 33 64 54 16 63 -50 111 -186 138 -62 13 -235
27 -243 20z"/>
<path d="M8588 9435 c-2 -1 -123 -5 -270 -9 -146 -4 -279 -9 -295 -11 -15 -1
-93 -6 -173 -10 -186 -8 -427 -33 -451 -46 -22 -12 -24 -32 -5 -48 15 -13 272
-25 726 -36 140 -3 316 -8 390 -10 497 -17 1032 -22 1085 -10 17 4 67 18 113
32 71 22 82 28 82 48 0 48 -148 78 -472 95 -171 8 -721 13 -730 5z"/>
<path d="M8900 9047 c-3 -2 -125 -7 -271 -11 -146 -4 -277 -9 -290 -11 -13 -2
-78 -6 -144 -10 -66 -3 -133 -8 -150 -10 -16 -3 -48 -7 -70 -10 -84 -11 -143
-27 -148 -39 -18 -46 41 -117 115 -136 30 -9 442 -11 1485 -10 794 0 1449 3
1456 5 6 2 315 6 685 10 371 3 679 8 685 10 7 2 126 6 265 10 139 3 270 8 290
10 20 2 86 6 145 10 60 4 116 8 125 9 93 17 92 16 92 41 0 20 -7 26 -37 34
-43 11 -197 27 -348 36 -55 3 -134 7 -175 10 -41 2 -154 7 -250 10 -96 3 -204
8 -240 10 -36 2 -213 7 -395 10 -181 4 -341 9 -355 11 -32 6 -2464 17 -2470
11z"/>
<path d="M6376 9019 c-77 -10 -153 -40 -162 -64 -9 -23 49 -79 108 -105 191
-82 578 -59 615 37 18 47 -138 113 -310 132 -109 12 -152 12 -251 0z"/>
<path d="M7495 9008 c-44 -15 -95 -56 -95 -76 0 -19 91 -113 127 -131 36 -19
78 -13 119 18 48 34 94 87 94 107 0 18 -82 71 -130 84 -43 12 -76 12 -115 -2z"/>
<path d="M13228 8566 c-21 -8 -49 -21 -63 -30 -21 -14 -23 -20 -14 -43 31 -83
80 -120 146 -111 50 7 137 50 141 69 4 24 -57 99 -93 115 -42 17 -69 17 -117
0z"/>
<path d="M13435 7849 c-38 -4 -146 -15 -240 -24 -252 -25 -300 -32 -333 -54
-22 -14 -9 -54 24 -76 l31 -21 -84 -44 c-47 -23 -103 -60 -125 -81 -35 -33
-40 -43 -36 -71 3 -18 8 -40 12 -49 5 -12 -6 -19 -56 -33 -72 -20 -89 -31 -81
-52 8 -21 100 -60 198 -86 147 -38 356 -21 415 34 30 28 18 38 -111 99 -60 29
-109 55 -109 58 0 3 46 19 103 34 184 50 359 140 473 242 l59 53 -20 39 c-23
43 -25 44 -120 32z"/>
<path d="M11810 7799 c-212 -19 -284 -40 -249 -74 35 -34 626 -61 898 -41 135
10 176 23 176 56 0 20 -7 26 -45 37 -105 31 -547 43 -780 22z"/>
</g>
</svg>
